<?xml version="1.0" encoding="UTF-8" standalone="no"?>
<!DOCTYPE svg PUBLIC "-//W3C//DTD SVG 1.1//EN" "http://www.w3.org/Graphics/SVG/1.1/DTD/svg11.dtd">
<!-- Created with Vectornator (http://vectornator.io/) -->
<svg height="100%" stroke-miterlimit="10" style="fill-rule:nonzero;clip-rule:evenodd;stroke-linecap:round;stroke-linejoin:round;" version="1.1" viewBox="105.675 370.299 1693.29 400.576" width="100%" xml:space="preserve" xmlns="http://www.w3.org/2000/svg" xmlns:vectornator="http://vectornator.io" xmlns:xlink="http://www.w3.org/1999/xlink">
<defs/>
<clipPath id="ArtboardFrame">
<rect height="400.576" width="1693.29" x="105.675" y="370.299"/>
</clipPath>
<g clip-path="url(#ArtboardFrame)" id="Layer" vectornator:layerName="Layer">
<g opacity="1" vectornator:layerName="Group 1">
<path d="M622.335 631.579L640.995 631.579C662.408 631.579 677.744 628.83 687.002 623.332C696.261 617.835 700.892 609.01 700.892 596.857C700.892 584.705 696.261 575.879 687.002 570.382C677.744 564.884 662.408 562.135 640.995 562.135L622.335 562.135L622.335 631.579ZM622.335 498.768L637.96 498.768C664.577 498.768 677.887 488.207 677.887 467.085C677.887 445.963 664.577 435.401 637.96 435.401L622.335 435.401L622.335 498.768ZM537.264 370.299L664.001 370.299C694.092 370.299 716.951 377.532 732.576 391.999C748.201 406.467 756.011 427.3 756.011 454.498C756.011 470.991 753.046 484.663 747.115 495.513C741.182 506.364 732.143 515.551 719.989 523.074C732.143 525.388 742.484 528.933 751.02 533.707C759.556 538.481 766.502 544.341 771.853 551.285C777.207 558.229 781.042 566.042 783.357 574.722C785.669 583.402 786.829 592.662 786.829 602.499C786.829 617.835 784.15 631.434 778.799 643.297C773.445 655.16 765.923 665.143 756.231 673.245C746.536 681.346 734.745 687.423 720.855 691.473C706.969 695.524 691.343 697.55 673.982 697.55L537.264 697.55L537.264 370.299Z" fill="#ffffff" fill-rule="nonzero" opacity="1" stroke="none" vectornator:layerName="path"/>
<path d="M908.787 474.897L908.787 600.329C908.787 627.817 922.097 641.561 948.717 641.561C975.337 641.561 988.647 627.817 988.647 600.329L988.647 474.897L1067.2 474.897L1067.2 615.52C1067.2 645.612 1057.3 668.181 1037.48 683.227C1017.66 698.273 988.067 705.796 948.717 705.796C909.367 705.796 879.782 698.273 859.958 683.227C840.138 668.181 830.23 645.612 830.23 615.52L830.23 474.897L908.787 474.897Z" fill="#ffffff" fill-rule="nonzero" opacity="1" stroke="none" vectornator:layerName="path 1"/>
<path d="M1235.17 632.013L1328.92 632.013L1328.92 697.55L1103.23 697.55L1208.26 540.434L1117.55 540.434L1117.55 474.897L1339.34 474.897L1235.17 632.013Z" fill="#ffffff" fill-rule="nonzero" opacity="1" stroke="none" vectornator:layerName="path 2"/>
<path d="M1490.81 632.013L1584.56 632.013L1584.56 697.55L1358.87 697.55L1463.9 540.434L1373.19 540.434L1373.19 474.897L1594.97 474.897L1490.81 632.013Z" fill="#ffffff" fill-rule="nonzero" opacity="1" stroke="none" vectornator:layerName="path 3"/>
<path d="M1631.87 474.897L1710.42 474.897L1710.42 511.355C1718.82 498.045 1729.09 487.846 1741.24 480.757C1753.39 473.668 1767.57 470.123 1783.77 470.123L1790.5 470.123C1792.96 470.123 1795.78 470.412 1798.97 470.991L1798.97 546.077C1788.55 540.868 1777.26 538.264 1765.11 538.264C1746.88 538.264 1733.21 543.69 1724.1 554.54C1714.98 565.391 1710.42 581.232 1710.42 602.065L1710.42 697.55L1631.87 697.55L1631.87 474.897Z" fill="#ffffff" fill-rule="nonzero" opacity="1" stroke="none" vectornator:layerName="path 4"/>
<path d="M286.879 379.593C386.888 379.593 468.082 456.801 468.082 551.899C468.082 646.997 386.888 724.204 286.879 724.204C186.87 724.204 105.675 646.997 105.675 551.899C105.675 456.801 186.87 379.593 286.879 379.593ZM286.879 465.746C336.883 465.746 377.48 504.35 377.48 551.899C377.48 599.448 336.883 638.051 286.879 638.051C236.875 638.051 196.277 599.448 196.277 551.899C196.277 504.35 236.875 465.746 286.879 465.746Z" fill="#ffffff" fill-rule="evenodd" opacity="1" stroke="none" vectornator:layerName="path 5"/>
<path d="M329.63 582.342C325.879 578.591 320.792 576.485 315.486 576.484C308.433 576.485 297.675 576.485 286.405 576.484C278.315 576.484 271.024 581.358 267.928 588.831C264.832 596.304 266.543 604.906 272.263 610.626C319.139 657.502 400.154 738.517 422.374 760.737C426.079 764.442 431.089 766.547 436.329 766.595C443.406 766.662 454.275 766.764 465.686 766.871C473.809 766.948 481.17 762.103 484.315 754.613C487.458 747.122 485.761 738.474 480.017 732.73C432.932 685.645 351.97 604.683 329.63 582.342Z" fill="#ffffff" fill-rule="evenodd" opacity="1" stroke="#044590" stroke-linecap="round" stroke-linejoin="round" stroke-width="8.00597" vectornator:layerName="path 6"/>
</g>
</g>
</svg>
