<svg width="100%" height="100%" viewBox="0 0 5292 1242" version="1.1" xmlns="http://www.w3.org/2000/svg" xmlns:xlink="http://www.w3.org/1999/xlink" xml:space="preserve" xmlns:serif="http://www.serif.com/" style="fill-rule:evenodd;clip-rule:evenodd;stroke-linecap:round;stroke-linejoin:round;stroke-miterlimit:1.5;">
  <g>
    <path d="M1614.55,816.5l58.322,-0c66.911,-0 114.834,-8.59 143.769,-25.77c28.935,-17.18 43.402,-44.758 43.402,-82.735c-0,-37.977 -14.467,-65.555 -43.402,-82.735c-28.935,-17.18 -76.858,-25.77 -143.769,-25.77l-58.322,0l0,217.01Zm0,-415.032l48.828,0c83.187,0 124.78,-33.003 124.78,-99.01c0,-66.008 -41.593,-99.011 -124.78,-99.011l-48.828,-0l0,198.021Zm-265.837,-401.468l396.043,0c94.038,0 165.47,22.605 214.298,67.816c48.827,45.21 73.241,110.313 73.241,195.309c-0,51.539 -9.269,94.263 -27.805,128.171c-18.536,33.908 -46.793,62.616 -84.769,86.126c37.976,7.234 70.302,18.31 96.976,33.23c26.674,14.919 48.375,33.229 65.103,54.93c16.728,21.701 28.709,46.115 35.942,73.241c7.234,27.126 10.851,56.061 10.851,86.804c-0,47.923 -8.364,90.421 -25.092,127.493c-16.728,37.073 -40.237,68.268 -70.528,93.586c-30.291,25.318 -67.138,44.306 -110.54,56.965c-43.402,12.659 -92.229,18.988 -146.481,18.988l-427.239,0l0,-1022.66Z" style="fill:#fff;fill-rule:nonzero;" />
    <path d="M2509.72,326.871l0,391.974c0,85.9 41.594,128.85 124.781,128.85c83.187,0 124.781,-42.95 124.781,-128.85l-0,-391.974l245.492,0l0,439.445c0,94.038 -30.969,164.566 -92.907,211.585c-61.938,47.019 -154.394,70.528 -277.366,70.528c-122.972,0 -215.427,-23.509 -277.366,-70.528c-61.938,-47.019 -92.907,-117.547 -92.907,-211.585l-0,-439.445l245.492,0Z" style="fill:#fff;fill-rule:nonzero;" />
    <path d="M3529.67,817.856l292.964,0l-0,204.803l-705.283,0l328.228,-490.985l-283.469,0l-0,-204.803l693.075,0l-325.515,490.985Z" style="fill:#fff;fill-rule:nonzero;" />
    <path d="M4328.53,817.856l292.964,0l-0,204.803l-705.283,0l328.228,-490.985l-283.469,0l-0,-204.803l693.075,0l-325.515,490.985Z" style="fill:#fff;fill-rule:nonzero;" />
    <path d="M4769.34,326.871l245.492,0l0,113.93c26.222,-41.593 58.322,-73.466 96.298,-95.62c37.977,-22.153 82.283,-33.229 132.919,-33.229l21.023,-0c7.686,-0 16.502,0.904 26.448,2.712l-0,234.642c-32.552,-16.275 -67.816,-24.413 -105.793,-24.413c-56.965,-0 -99.688,16.954 -128.171,50.862c-28.483,33.907 -42.724,83.413 -42.724,148.516l0,298.388l-245.492,0l-0,-695.788Z" style="fill:#fff;fill-rule:nonzero;" />
  </g>
  <g>
    <path d="M788.299,1033.88c-68.2,27.702 -143.251,43.036 -222.039,43.036c-312.528,-0 -566.26,-241.274 -566.26,-538.456c0,-297.182 253.732,-538.456 566.26,-538.456c312.527,0 566.259,241.274 566.259,538.456c0,132.959 -50.789,254.727 -134.899,348.693l-197.278,-197.278c30.949,-43.157 49.047,-95.292 49.047,-151.415c0,-148.591 -126.866,-269.228 -283.129,-269.228c-156.264,-0 -283.13,120.637 -283.13,269.228c-0,147.268 124.618,267.078 278.947,269.198l226.222,226.222Z" style="fill:#fff;" />
    <path d="M699.863,633.586c-11.721,-11.721 -27.618,-18.306 -44.194,-18.306c-22.043,0 -55.662,0 -90.883,0c-25.279,0 -48.068,15.228 -57.742,38.583c-9.674,23.354 -4.327,50.237 13.548,68.112c146.484,146.483 399.659,399.659 469.097,469.097c11.577,11.577 27.235,18.149 43.607,18.303c22.117,0.208 56.089,0.527 91.744,0.862c25.385,0.238 48.392,-14.901 58.217,-38.309c9.825,-23.407 4.515,-50.432 -13.435,-68.382c-147.14,-147.14 -400.143,-400.144 -469.959,-469.96Z" style="fill:none;stroke:#044590;stroke-opacity:0;stroke-width:62.5px;" />
    <path d="M699.863,633.586c-11.721,-11.721 -27.618,-18.306 -44.194,-18.306c-22.043,0 -55.662,0 -90.883,0c-25.279,0 -48.068,15.228 -57.742,38.583c-9.674,23.354 -4.327,50.237 13.548,68.112c146.484,146.483 399.659,399.659 469.097,469.097c11.577,11.577 27.235,18.149 43.607,18.303c22.117,0.208 56.089,0.527 91.744,0.862c25.385,0.238 48.392,-14.901 58.217,-38.309c9.825,-23.407 4.515,-50.432 -13.435,-68.382c-147.14,-147.14 -400.143,-400.144 -469.959,-469.96Z" style="fill:#fff;" />
  </g>
</svg>