<?xml version="1.0" encoding="UTF-8" standalone="no" ?>
<!DOCTYPE svg PUBLIC "-//W3C//DTD SVG 1.1//EN" "http://www.w3.org/Graphics/SVG/1.1/DTD/svg11.dtd">
<svg xmlns="http://www.w3.org/2000/svg" xmlns:xlink="http://www.w3.org/1999/xlink" version="1.1" width="1080" height="1080" viewBox="0 0 1080 1080" xml:space="preserve">
<desc>Created with Fabric.js 5.2.4</desc>
<defs>
</defs>
<g transform="matrix(1 0 0 1 540 540)" id="08ddd323-44b3-48a6-907a-c73656269d26"  >
</g>
<g transform="matrix(1 0 0 1 540 540)" id="7f289219-3e45-499e-b484-4850b7a1e13d"  >
<rect style="stroke: none; stroke-width: 1; stroke-dasharray: none; stroke-linecap: butt; stroke-dashoffset: 0; stroke-linejoin: miter; stroke-miterlimit: 4; fill: rgb(255,255,255); fill-rule: nonzero; opacity: 1; visibility: hidden;" vector-effect="non-scaling-stroke"  x="-540" y="-540" rx="0" ry="0" width="1080" height="1080" />
</g>
<g transform="matrix(1 0 0 1 -1539.5 457.97)"  >
<path style="stroke: none; stroke-width: 1; stroke-dasharray: none; stroke-linecap: round; stroke-dashoffset: 0; stroke-linejoin: round; stroke-miterlimit: 1.5; fill: rgb(255,255,255); fill-rule: evenodd; opacity: 1;" vector-effect="non-scaling-stroke"  transform=" translate(-566.26, -538.46)" d="M 788.299 1033.88 C 720.0989999999999 1061.582 645.048 1076.9160000000002 566.26 1076.9160000000002 C 253.732 1076.916 0 835.642 0 538.46 C 0 241.27800000000002 253.732 0.004 566.26 0.004 C 878.787 0.004 1132.519 241.278 1132.519 538.46 C 1132.519 671.4190000000001 1081.73 793.187 997.62 887.153 L 800.342 689.875 C 831.2909999999999 646.718 849.389 594.583 849.389 538.46 C 849.389 389.869 722.523 269.232 566.26 269.232 C 409.99699999999996 269.232 283.13 389.869 283.13 538.46 C 283.13 685.7280000000001 407.748 805.538 562.077 807.658 z" stroke-linecap="round" />
</g>
<g transform="matrix(1 0 0 1 -1260.56 832.27)"  >
<path style="stroke: rgb(4,69,144); stroke-opacity: 0; stroke-width: 62.5; stroke-dasharray: none; stroke-linecap: round; stroke-dashoffset: 0; stroke-linejoin: round; stroke-miterlimit: 1.5; fill: none; fill-rule: evenodd; opacity: 1;" vector-effect="non-scaling-stroke"  transform=" translate(-845.21, -912.76)" d="M 699.863 633.586 C 688.1420473977398 621.8649551955377 672.2449953307229 615.2800922019455 655.6690000000001 615.28 L 564.7860000000001 615.28 C 539.5070000000001 615.28 516.7180000000001 630.5079999999999 507.04400000000004 653.8629999999999 C 497.37 677.218 502.71700000000004 704.0999999999999 520.592 721.9749999999999 L 989.689 1191.072 C 1001.2662253910675 1202.649189463218 1016.9240786297215 1209.221200558388 1033.296 1209.375 L 1125.04 1210.237 C 1150.425 1210.4750000000001 1173.432 1195.336 1183.257 1171.928 C 1193.082 1148.5200000000002 1187.7720000000002 1121.496 1169.8220000000001 1103.546 z" stroke-linecap="round" />
</g>
<g transform="matrix(1 0 0 1 -1260.56 832.27)"  >
<path style="stroke: none; stroke-width: 1; stroke-dasharray: none; stroke-linecap: round; stroke-dashoffset: 0; stroke-linejoin: round; stroke-miterlimit: 1.5; fill: rgb(255,255,255); fill-rule: evenodd; opacity: 1;" vector-effect="non-scaling-stroke"  transform=" translate(-845.21, -912.76)" d="M 699.863 633.586 C 688.1420473977398 621.8649551955377 672.2449953307229 615.2800922019455 655.6690000000001 615.28 L 564.7860000000001 615.28 C 539.5070000000001 615.28 516.7180000000001 630.5079999999999 507.04400000000004 653.8629999999999 C 497.37 677.218 502.71700000000004 704.0999999999999 520.592 721.9749999999999 L 989.689 1191.072 C 1001.2662253910675 1202.649189463218 1016.9240786297215 1209.221200558388 1033.296 1209.375 L 1125.04 1210.237 C 1150.425 1210.4750000000001 1173.432 1195.336 1183.257 1171.928 C 1193.082 1148.5200000000002 1187.7720000000002 1121.496 1169.8220000000001 1103.546 z" stroke-linecap="round" />
</g>
</svg>